<svg id="Layer_1" data-name="Layer 1" xmlns="http://www.w3.org/2000/svg" viewBox="0 0 99.79 48.25"><defs><style>.cls-1{fill:#1d80c3;}.cls-2{fill:#3bb44a;}.cls-3{fill:#ec1c24;}.cls-4{fill:#7f8083;}.cls-5{fill:#fcb918;}.cls-6{fill:#dc3730;}</style></defs><title>Untitled-17</title><g id="_Group_" data-name="&lt;Group&gt;"><path id="_Path_" data-name="&lt;Path&gt;" class="cls-1" d="M87.91,27.63a3,3,0,1,0,2.3,2.46A3,3,0,0,0,87.91,27.63Z" transform="translate(-40.1 -0.88)"/><path id="_Path_2" data-name="&lt;Path&gt;" class="cls-1" d="M104.88,31.23a3,3,0,0,0-2-3.51,3,3,0,0,0-3.8,2.14,3,3,0,0,0,5.76,1.37Z" transform="translate(-40.1 -0.88)"/><path id="_Path_3" data-name="&lt;Path&gt;" class="cls-2" d="M107.25,26.74a1.24,1.24,0,0,0,0-2.48c-5.78-.05-11.55,0-17.33,0a31.87,31.87,0,0,1-3,2.51C93.72,26.76,100.48,26.78,107.25,26.74Z" transform="translate(-40.1 -0.88)"/><path id="_Path_4" data-name="&lt;Path&gt;" class="cls-3" d="M84.42,27.53q.6-.36,1.21-.76a29.7,29.7,0,0,0,3.23-2.52l.27-.25.55-.51.26-.25c.68-.67,1.35-1.37,2-2.13.35-.41.69-.82,1-1.24s.55-.71.81-1.07c.6-.83,1.15-1.67,1.65-2.5l.44-.77.38-.71.38-.75a24.29,24.29,0,0,0,1-2.48,19.65,19.65,0,0,0,.56-1.91h0l.06-.26.05-.24q.07-.34.12-.67A21.85,21.85,0,0,0,98.63,1a1.08,1.08,0,0,0,0-.17L94.53,4.56l1.6,2.13c0,.23-.47,2.25-.52,2.48s-.12.51-.19.76-.09.33-.14.5l-.13.4q-.12.38-.27.76a22.53,22.53,0,0,1-1.12,2.48q-.48.92-1.07,1.85a29.55,29.55,0,0,1-2.28,3.13l-.36.43-.35.4-.06.06-.71.77a28.62,28.62,0,0,1-2.76,2.52l-.3.24-.58.44-.44.32a20.87,20.87,0,0,1-3,1.77l-.1,0-.6.27c-3.07,1.27-5.86,1.31-7.6-.2-2.12-1.83-2.22-5.51-.63-9.61a20.07,20.07,0,0,0-1.6,5.22c-.44,3,.12,5.47,1.81,6.94C75.58,30.79,79.92,30.2,84.42,27.53Z" transform="translate(-40.1 -0.88)"/><path id="_Path_5" data-name="&lt;Path&gt;" class="cls-1" d="M76.67,10.19A25.09,25.09,0,0,0,73,16.54c-1.48,3.91-1.36,7.39.66,9.14C75.38,27.12,78,27.1,81,25.9l.56-.24-.57.19a9,9,0,0,1-2,.38,4.62,4.62,0,0,1-3.42-1C73,23,73.84,17.67,77.33,12.55Z" transform="translate(-40.1 -0.88)"/><path id="_Path_6" data-name="&lt;Path&gt;" class="cls-2" d="M70.48,7.49c2.07.23,4.19,0,6.27.14l.26.94.25.89.64,2.3.26.95c1.16,4.18,2.29,8.37,3.43,12.57A19.54,19.54,0,0,0,83.85,24c-1.33-4.54-2.52-9.13-3.77-13.7l-.24-.87-.6-2.15L79,6.43,78.89,6a1.15,1.15,0,0,0-1.16-.87c-2.35,0-4.69,0-7,0A1.24,1.24,0,0,0,70.48,7.49Z" transform="translate(-40.1 -0.88)"/><path id="_Compound_Path_" data-name="&lt;Compound Path&gt;" class="cls-4" d="M109.33,6.74q-5-.05-10,0a18.79,18.79,0,0,1-1.92,7.39l.8,0a12.69,12.69,0,0,1-.11,2.1l-1.83.08c-.48.84-1,1.68-1.61,2.51h3.23a6.6,6.6,0,0,1-.16,1.89c-1.51,0-3,0-4.52,0-.24.3-.49.6-.75.9q-.73.85-1.5,1.63h14.26a1.35,1.35,0,0,0,1.48-1c1.18-4.53,2.3-9.11,3.46-13.65C110.49,7.83,110.17,6.81,109.33,6.74Zm-4.78,13.94c-1.39,0-2.78,0-4.17,0a7.36,7.36,0,0,1,.16-1.87c1.5,0,3,0,4.49,0A9.23,9.23,0,0,1,104.54,20.68Zm1.14-4.49a45.36,45.36,0,0,1-5,0,10.79,10.79,0,0,1,.14-2.1,47.28,47.28,0,0,1,5.38,0A11.23,11.23,0,0,1,105.68,16.19Zm1.14-4.62c-1.94,0-3.87,0-5.81,0a19.91,19.91,0,0,1,.11-2.35c2.1-.14,4.19,0,6.31-.07A11.91,11.91,0,0,1,106.82,11.57Z" transform="translate(-40.1 -0.88)"/><path id="_Compound_Path_2" data-name="&lt;Compound Path&gt;" class="cls-4" d="M94,6.69H82.28A1.29,1.29,0,0,0,80.94,8.3a1.16,1.16,0,0,0,0,.12l.19.72c1.16,4.39,2.27,8.77,3.46,13.16a1.06,1.06,0,0,0,.55.74,27.35,27.35,0,0,0,2.68-2.33c-.37,0-.73,0-1.09,0a13.91,13.91,0,0,1-.5-1.85c1.12,0,2.23,0,3.36,0a28.06,28.06,0,0,0,3-4.23c0-.13,0-.27,0-.4l.24,0A22.75,22.75,0,0,0,94,11.58l-1.63,0c-.07-.78-.14-1.57-.14-2.35l1.92,0A6.58,6.58,0,0,0,94,6.69Zm-9.62,4.88a12.56,12.56,0,0,1-.62-2.37c2,0,4,0,5.92,0a6.39,6.39,0,0,1,0,2.37C88,11.59,86.2,11.62,84.42,11.57Zm5.72,4.69c-1.46,0-2.94,0-4.4,0-.5-.52-.48-1.44-.66-2.14,1.66,0,3.33-.07,5,0A8.65,8.65,0,0,1,90.14,16.26Z" transform="translate(-40.1 -0.88)"/><path id="_Path_7" data-name="&lt;Path&gt;" class="cls-5" d="M82.14,5.92h1.73A13.78,13.78,0,0,1,94.06,3.12l.19,0a4.17,4.17,0,0,0-.57-.6c-2-1.73-5.4-1.36-9,.6a23.31,23.31,0,0,0-4,2.8h1.45Z" transform="translate(-40.1 -0.88)"/></g><path class="cls-4" d="M47.38,43.05a3.4,3.4,0,0,1-1,2.52,3.82,3.82,0,0,1-5.21,0,3.59,3.59,0,0,1,0-5,3.81,3.81,0,0,1,5.21,0A3.42,3.42,0,0,1,47.38,43.05Zm-5.35,0a2,2,0,0,0,.48,1.38,1.69,1.69,0,0,0,2.46,0,2,2,0,0,0,.48-1.38A2,2,0,0,0,45,41.67a1.67,1.67,0,0,0-2.46,0A2,2,0,0,0,42,43.05Z" transform="translate(-40.1 -0.88)"/><path class="cls-4" d="M53.92,44.35A2,2,0,0,1,53.17,46a2.9,2.9,0,0,1-1.9.61,5.09,5.09,0,0,1-1.6-.28,4.72,4.72,0,0,1-1.5-.81l.84-1.2a3.68,3.68,0,0,0,2.29.83A1,1,0,0,0,51.9,45a.45.45,0,0,0,.22-.39.56.56,0,0,0-.3-.45,3.4,3.4,0,0,0-.87-.38q-.57-.18-.87-.31a4.87,4.87,0,0,1-.68-.37,1.59,1.59,0,0,1-.78-1.44,1.89,1.89,0,0,1,.77-1.55,3.12,3.12,0,0,1,2-.6,4.33,4.33,0,0,1,2.43.82l-.72,1.28A3.14,3.14,0,0,0,51.29,41q-.89,0-.89.49a.47.47,0,0,0,.28.42,5.68,5.68,0,0,0,.93.36q.65.2.93.31a4.67,4.67,0,0,1,.66.34A1.56,1.56,0,0,1,53.92,44.35Z" transform="translate(-40.1 -0.88)"/><path class="cls-4" d="M61.24,46.5h-1.8v-.83a2.26,2.26,0,0,1-1.84.93A2.73,2.73,0,0,1,55.77,46,2.11,2.11,0,0,1,55,44.28a1.79,1.79,0,0,1,.77-1.58,3.67,3.67,0,0,1,2.1-.52h1.43v0q0-1.1-1.16-1.1a3.15,3.15,0,0,0-1.06.2,3.43,3.43,0,0,0-.94.49l-.86-1.24a5.13,5.13,0,0,1,3.1-1,3.2,3.2,0,0,1,2,.63,2.37,2.37,0,0,1,.79,2Zm-1.93-2.62v-.33h-1.2q-1.15,0-1.15.72a.66.66,0,0,0,.28.57A1.33,1.33,0,0,0,58,45a1.4,1.4,0,0,0,.9-.31A1,1,0,0,0,59.31,43.87Z" transform="translate(-40.1 -0.88)"/><path class="cls-4" d="M63.69,49H63V37h1.92v4.88l2.14-2.28h2.42l-2.62,2.79,2.73,4.11H67.29l-1.75-2.64-.63.65v3.31A1.23,1.23,0,0,1,63.69,49Z" transform="translate(-40.1 -0.88)"/><path class="cls-4" d="M76.28,46.5h-1.8v-.83a2.26,2.26,0,0,1-1.84.93A2.73,2.73,0,0,1,70.8,46a2.11,2.11,0,0,1-.74-1.69,1.79,1.79,0,0,1,.77-1.58,3.67,3.67,0,0,1,2.1-.52h1.43v0q0-1.1-1.16-1.1a3.15,3.15,0,0,0-1.06.2,3.43,3.43,0,0,0-.94.49l-.86-1.24a5.13,5.13,0,0,1,3.1-1,3.2,3.2,0,0,1,2,.63,2.38,2.38,0,0,1,.79,2Zm-1.93-2.62v-.33h-1.2q-1.15,0-1.15.72a.66.66,0,0,0,.28.57,1.33,1.33,0,0,0,.79.2,1.4,1.4,0,0,0,.9-.31A1,1,0,0,0,74.34,43.87Z" transform="translate(-40.1 -0.88)"/><path class="cls-4" d="M80.34,42.78V46.5H78.42V37h1.92v3.38a2.68,2.68,0,0,1,2-.88,2.44,2.44,0,0,1,1.82.77,2.82,2.82,0,0,1,.74,2V46.5H82.94V42.73q0-1.59-1.16-1.59a1.4,1.4,0,0,0-1,.42A1.63,1.63,0,0,0,80.34,42.78Z" transform="translate(-40.1 -0.88)"/><path class="cls-4" d="M92.45,46.5h-1.8v-.83a2.26,2.26,0,0,1-1.84.93A2.73,2.73,0,0,1,87,46a2.11,2.11,0,0,1-.74-1.69A1.79,1.79,0,0,1,87,42.69a3.67,3.67,0,0,1,2.1-.52h1.43v0q0-1.1-1.16-1.1a3.15,3.15,0,0,0-1.06.2,3.43,3.43,0,0,0-.94.49l-.86-1.24a5.14,5.14,0,0,1,3.1-1,3.2,3.2,0,0,1,2,.63,2.38,2.38,0,0,1,.79,2Zm-1.93-2.62v-.33h-1.2q-1.15,0-1.15.72a.66.66,0,0,0,.28.57,1.33,1.33,0,0,0,.79.2,1.4,1.4,0,0,0,.9-.31A1,1,0,0,0,90.51,43.87Z" transform="translate(-40.1 -0.88)"/><path class="cls-4" d="M96.12,46.5H94.2V37h1.92Z" transform="translate(-40.1 -0.88)"/><path class="cls-4" d="M103.78,46.5H102v-.83a2.26,2.26,0,0,1-1.84.93A2.73,2.73,0,0,1,98.31,46a2.11,2.11,0,0,1-.74-1.69,1.79,1.79,0,0,1,.77-1.58,3.67,3.67,0,0,1,2.1-.52h1.43v0q0-1.1-1.16-1.1a3.15,3.15,0,0,0-1.06.2,3.43,3.43,0,0,0-.94.49l-.86-1.24a5.14,5.14,0,0,1,3.1-1,3.2,3.2,0,0,1,2,.63,2.38,2.38,0,0,1,.79,2Zm-1.93-2.62v-.33h-1.2q-1.15,0-1.15.72a.66.66,0,0,0,.28.57,1.33,1.33,0,0,0,.79.2,1.4,1.4,0,0,0,.9-.31A1,1,0,0,0,101.85,43.87Z" transform="translate(-40.1 -0.88)"/><path class="cls-4" d="M107.46,46.5h-1.92V37h1.92Z" transform="translate(-40.1 -0.88)"/><path class="cls-6" d="M116.17,42.78V46.5h-1.93V42.73a2.26,2.26,0,0,0-.25-1.2.89.89,0,0,0-.81-.38,1.37,1.37,0,0,0-1,.42,1.63,1.63,0,0,0-.43,1.22V46.5h-1.92V39.61h1.92v.78a2.38,2.38,0,0,1,1.82-.9,2,2,0,0,1,1.18.38,2.5,2.5,0,0,1,.8.93,2.7,2.7,0,0,1,1.07-1A2.93,2.93,0,0,1,118,39.5a2.69,2.69,0,0,1,2,.72,2.79,2.79,0,0,1,.74,2.09V46.5h-1.93V42.73q0-1.59-1.16-1.59a1.38,1.38,0,0,0-1,.42A1.64,1.64,0,0,0,116.17,42.78Z" transform="translate(-40.1 -0.88)"/><path class="cls-5" d="M128.28,46.5h-1.8v-.83a2.26,2.26,0,0,1-1.84.93A2.73,2.73,0,0,1,122.8,46a2.11,2.11,0,0,1-.74-1.69,1.79,1.79,0,0,1,.77-1.58,3.67,3.67,0,0,1,2.1-.52h1.43v0q0-1.1-1.16-1.1a3.15,3.15,0,0,0-1.06.2,3.43,3.43,0,0,0-.94.49l-.86-1.24a5.13,5.13,0,0,1,3.1-1,3.2,3.2,0,0,1,2,.63,2.37,2.37,0,0,1,.79,2Zm-1.93-2.62v-.33h-1.2q-1.15,0-1.15.72a.66.66,0,0,0,.27.57,1.33,1.33,0,0,0,.79.2,1.4,1.4,0,0,0,.9-.31A1,1,0,0,0,126.35,43.87Z" transform="translate(-40.1 -0.88)"/><path class="cls-1" d="M133.65,41.3a1.45,1.45,0,0,0-1.28.61,2.76,2.76,0,0,0-.42,1.61v4.3A1.23,1.23,0,0,1,130.72,49H130V39.61H132v.91a3.22,3.22,0,0,1,.93-.72A2.52,2.52,0,0,1,134,39.5v1.8Z" transform="translate(-40.1 -0.88)"/><path class="cls-2" d="M137.58,41v3.08a.89.89,0,0,0,.2.62.64.64,0,0,0,.49.22,1.11,1.11,0,0,0,.91-.49l.72,1.34a2.77,2.77,0,0,1-1.89.82,2.29,2.29,0,0,1-2.36-2.43V41h-.81V39.61h.81V37.55h1.93v2.06h1.66V41Z" transform="translate(-40.1 -0.88)"/><path class="cls-4" d="M66.13,47.55l.21.73.22-.73h.27l-.34,1h-.28l-.1-.29L66,47.91l-.09.33-.1.29h-.28l-.34-1h.27l.22.73.21-.73Z" transform="translate(-40.1 -0.88)"/><path class="cls-4" d="M70,47.55l.21.73.22-.73h.27l-.34,1H70.1l-.1-.29-.09-.33-.09.33-.1.29h-.28l-.34-1h.27l.22.73.21-.73Z" transform="translate(-40.1 -0.88)"/><path class="cls-4" d="M73.91,47.55l.21.73.22-.73h.27l-.34,1H74l-.1-.29-.09-.33-.09.33-.1.29h-.28l-.34-1h.27l.22.73.21-.73Z" transform="translate(-40.1 -0.88)"/><path class="cls-4" d="M77.19,48.4a.14.14,0,0,1-.28,0A.14.14,0,0,1,77.19,48.4Z" transform="translate(-40.1 -0.88)"/><path class="cls-4" d="M80.38,48a.51.51,0,1,1-.51-.51A.49.49,0,0,1,80.38,48Zm-.77,0a.27.27,0,1,0,.53,0,.27.27,0,0,0-.26-.29A.27.27,0,0,0,79.61,48Z" transform="translate(-40.1 -0.88)"/><path class="cls-4" d="M83.27,47.81a.33.33,0,0,0-.24-.09c-.11,0-.18,0-.18.1s.06.1.18.11.42.05.42.31-.14.32-.42.32a.57.57,0,0,1-.45-.17l.12-.17a.53.53,0,0,0,.34.14c.09,0,.18,0,.18-.12s-.06-.09-.19-.1-.4-.08-.4-.3.23-.3.41-.3a.52.52,0,0,1,.38.13Z" transform="translate(-40.1 -0.88)"/><path class="cls-4" d="M86.47,47.55h.23v1h-.23v-.14a.37.37,0,0,1-.32.17.51.51,0,0,1,0-1,.36.36,0,0,1,.31.16Zm-.58.49a.28.28,0,0,0,.29.3.29.29,0,0,0,0-.59A.28.28,0,0,0,85.89,48Z" transform="translate(-40.1 -0.88)"/><path class="cls-4" d="M89.23,47.14v.8l.33-.39h.29l-.4.44.45.5v0h-.29l-.38-.44v.44H89V47.14Z" transform="translate(-40.1 -0.88)"/><path class="cls-4" d="M92.88,47.55h.23v1h-.23v-.14a.37.37,0,0,1-.32.17.51.51,0,0,1,0-1,.36.36,0,0,1,.31.16Zm-.58.49a.28.28,0,0,0,.29.3.29.29,0,0,0,0-.59A.28.28,0,0,0,92.29,48Z" transform="translate(-40.1 -0.88)"/><path class="cls-4" d="M95.64,47.14v.54a.36.36,0,0,1,.3-.15c.28,0,.4.19.4.47v.51H96.1V48c0-.18-.09-.25-.22-.25a.25.25,0,0,0-.24.27v.5H95.4V47.14Z" transform="translate(-40.1 -0.88)"/><path class="cls-4" d="M99.41,47.55h.23v1h-.23v-.14a.37.37,0,0,1-.32.17.51.51,0,0,1,0-1,.36.36,0,0,1,.31.16Zm-.58.49a.28.28,0,0,0,.29.3.29.29,0,0,0,0-.59A.28.28,0,0,0,98.83,48Z" transform="translate(-40.1 -0.88)"/><path class="cls-4" d="M102.18,47.14v1.38h-.24V47.14Z" transform="translate(-40.1 -0.88)"/><path class="cls-4" d="M105.25,47.55h.23v1h-.23v-.14a.37.37,0,0,1-.32.17.51.51,0,0,1,0-1,.36.36,0,0,1,.31.16Zm-.58.49a.28.28,0,0,0,.29.3.29.29,0,0,0,0-.59A.28.28,0,0,0,104.67,48Z" transform="translate(-40.1 -0.88)"/><path class="cls-4" d="M108,47.14v1.38h-.24V47.14Z" transform="translate(-40.1 -0.88)"/><path class="cls-4" d="M111,48.52V48c0-.13-.07-.24-.2-.24a.22.22,0,0,0-.21.24v.52h-.24v-1h.22l0,.12a.28.28,0,0,1,.26-.13.29.29,0,0,1,.29.18.35.35,0,0,1,.33-.18c.28,0,.41.17.41.46v.52h-.24V48c0-.13-.05-.24-.18-.24a.22.22,0,0,0-.21.24v.52Z" transform="translate(-40.1 -0.88)"/><path class="cls-4" d="M114.95,47.55h.23v1H115v-.14a.37.37,0,0,1-.32.17.51.51,0,0,1,0-1,.36.36,0,0,1,.31.16Zm-.58.49a.28.28,0,0,0,.29.3.29.29,0,0,0,0-.59A.28.28,0,0,0,114.36,48Z" transform="translate(-40.1 -0.88)"/><path class="cls-4" d="M117.7,47.55l0,.11a.29.29,0,0,1,.27-.14.37.37,0,0,1,.25.09l-.11.21a.24.24,0,0,0-.17-.06.22.22,0,0,0-.24.25v.51h-.24v-1Z" transform="translate(-40.1 -0.88)"/><path class="cls-4" d="M120.82,47.28v.28h.27v.21h-.27v.42a.12.12,0,0,0,.13.14l.12,0,.07.21a.54.54,0,0,1-.2,0,.31.31,0,0,1-.35-.35v-.42h-.18v-.21h.18V47.3Z" transform="translate(-40.1 -0.88)"/><path class="cls-4" d="M123.64,48.4a.14.14,0,0,1-.28,0A.14.14,0,0,1,123.64,48.4Z" transform="translate(-40.1 -0.88)"/><path class="cls-4" d="M126.23,47.55v1.18c0,.24-.1.4-.32.4a.39.39,0,0,1-.22-.07l.09-.19a.24.24,0,0,0,.12,0c.08,0,.1-.07.1-.17V47.55Zm-.26-.27a.14.14,0,0,0,.28,0A.14.14,0,0,0,126,47.27Z" transform="translate(-40.1 -0.88)"/><path class="cls-4" d="M128.53,48.93V47.55h.22l0,.13a.39.39,0,0,1,.32-.16.49.49,0,0,1,.5.51.47.47,0,0,1-.49.51.39.39,0,0,1-.32-.14v.52Zm.81-.89a.28.28,0,1,0-.55,0,.28.28,0,1,0,.55,0Z" transform="translate(-40.1 -0.88)"/></svg>