<?xml version="1.0" encoding="utf-8"?>
<!-- Generator: Adobe Illustrator 21.0.0, SVG Export Plug-In . SVG Version: 6.00 Build 0)  -->
<svg version="1.1" id="Layer_1" xmlns="http://www.w3.org/2000/svg" xmlns:xlink="http://www.w3.org/1999/xlink" x="0px" y="0px"
	 viewBox="0 0 1440 1040" style="enable-background:new 0 0 1440 1040;" xml:space="preserve">
<style type="text/css">
	.st0{fill:#4DB454;}
	.st1{fill:#F6F9F5;}
	.st2{fill:#F6F9FA;}
	.st3{fill:#ED1C24;}
	.st4{fill:#FDBD1C;}
	.st5{fill:#2175BA;}
	.st6{fill:#40B54C;}
	.st7{fill:#818287;}
</style>
<g>
	<g>
		<path class="st0" d="M771.8,436.9c-1.4,3.7-3.3,4.7-7.1,3.8c-13.8-3.2-27.8-5.8-41.7-8.7c-1.3-0.3-3.2,0.3-2.5-2.2
			c0.5-1.7,0.1-3.8,3.3-3c9.2,2.1,18.4,3.9,27.6,5.8C758.2,434,764.9,435.4,771.8,436.9z"/>
		<path class="st1" d="M686.5,529.2c-5.7,0-10-4.2-9.9-9.8c0.1-5.4,4.5-9.5,10.3-9.4c5.3,0.1,9.9,4.6,9.9,9.6
			C696.8,524.8,692.1,529.2,686.5,529.2z"/>
		<path class="st2" d="M743,510.1c5.5-0.1,10.4,4.3,10.4,9.5c0.1,5.2-4.7,10-10,9.9c-5.6,0-10.4-4.4-10.5-9.5
			C732.9,514.8,737.6,510.3,743,510.1z"/>
		<path class="st3" d="M703.1,438.8c0.3,0,0.5,0,0.8,0c0.4,0,0.8,0,1.1,0h2.3v-50.6h-0.4h-86.4v80h7.4l0,0c12.7-0.1,25.4,0,38.5,0
			c-3.4-11.8-6.7-23-9.9-34.1c-2-7-2-7-9.5-7c-1.9,0-3.8,0.1-5.7,0c-4.2-0.2-7-2.7-7.1-6.1c-0.1-3.4,2.9-6,7.1-6.1
			c5.4-0.1,10.8,0,16.2,0c5.8,0,7.1,1,8.7,6.5c4.3,14.6,8.6,29.3,12.9,43.9c0.4,1.2,0.1,3.1,2.3,3.1c8.3,0,16.7,0,25.8,0
			c-4-3.7-4.6-6.9-1.2-10.4c0.3-0.3,0.9-0.8,1.3-1l0,0v-5.6h-1.3c-1,0-1.2,0-2.1,0h-1.6l0,0c-1.8-0.1-3.7,0-5.5-0.3
			c-3.3-0.5-5.2-2.6-5.2-6c0-3.4,2.1-5.3,5.4-5.8c2-0.3,4-0.3,6-0.3l0,0H703.1z"/>
		<path class="st4" d="M707.3,488.3c0-0.5,0-1.1-0.1-1.6v-6.1c0-0.6,0-1.2,0-1.8c0-1,0-1.9,0-2.7v-5.5H701c-0.5,0-1.1,0-1.7,0
			c-1.9,0-3.8,0-5.7,0c-3.6,0-7.3,0.1-10.9-0.1c-2.3-0.1-2.8,0.4-2.1,2.6c1.2,3.7,4.6,15.9,4.9,17.1c0.1,0.2,0.2,1,0.8,1.4
			c0.3,0.2,0.6,0.2,0.8,0.2l20,0.2v-2C707.4,489.6,707.4,489,707.3,488.3z"/>
		<path class="st4" d="M707.4,517.9v-14h-3.2c-0.1,0-0.2,0-0.3,0c-0.2,0-0.4,0-0.6,0h-7.4l0,0c-4.5,0-9,0-13.5,0
			c-4.1,0.1-6.5-1.7-7.6-5.6c-2.3-8.2-4.9-16.4-7.2-24.6c-0.6-2.2-1.3-3.3-4-3.3c-10,0.1-20,0.1-30,0c0,0,0-0.1,0-0.1h-13.5v80.8
			h87.1v-15h-0.1C707.3,530.1,707.3,523.9,707.4,517.9L707.4,517.9z M686.5,529.2c-5.7,0-10-4.2-9.9-9.8c0.1-5.4,4.5-9.5,10.3-9.4
			c5.3,0.1,9.9,4.6,9.9,9.6C696.8,524.8,692.1,529.2,686.5,529.2z"/>
		<path class="st5" d="M744.3,487"/>
		<path class="st5" d="M782.4,470.4H782c-1.9,0-10.5,0-10.7,0c0,0,0,0,0,0c-2.5,0-3.7,1.1-4.8,3.4c-3.7,8.4-7.6,16.6-11.3,25
			c-1.6,3.6-4.1,5.2-8.2,5.2c-3.5-0.1-7-0.1-10.5-0.1l0-0.1h-26.7v2.9c0,0.4-0.1,0.8,0,1.3c0,1.3,0,2.5,0,3.8V544c0,1,0,2,0,2.9
			c0,0.4,0,0.8,0,1.2v3.1l0.6-1.1c0,0,0,0,0,0.1l-0.7,1.1h86.8v-80.8H782.4z M743.5,529.6c-5.6,0-10.4-4.4-10.5-9.5
			c-0.1-5.3,4.6-9.8,10-10c5.5-0.1,10.4,4.3,10.4,9.5C753.6,524.9,748.8,529.6,743.5,529.6z"/>
		<path class="st5" d="M709.9,477.8c0,3.8,0,7.6,0,11.4v2.8h33.3c0.6,0,1.2-0.2,1.5-0.6c0.6-0.6,0.6-1.3,0.6-1.5c0-0.1,0-0.2,0-0.5
			c0-0.2,0-0.6,0-1c0-0.2,0-0.5,0-0.9V487h-0.8c-0.1,0-0.2,0-0.4,0c-0.1,0-0.2,0-0.3,0h-20.5c-1.2,0-2.4-0.2-3.5-0.8
			c-2-1.1-3.2-2.9-3.2-5.2c0.1-3.7,2.9-6,7.6-6c8.1-0.1,16.3-0.2,24.4,0c3.2,0.1,4.5-1.2,4.7-4.5c-12,0-23.9,0-35.8,0l0,0h-7.8"/>
		<path class="st6" d="M819.7,382.4l-84.5-17.8l-0.5,2.1c-0.2,0.4-0.3,0.9-0.5,1.6c-0.3,1.6-0.7,3.2-1,4.8l-9.8,41.1l1.2,0.2
			c0,0,2,0.5,5,1.2c17.7,3.8,35.5,7.4,53.3,11.2c7.2,1.6,8.7,5.7,4.3,11.6c-4,5.4-8.1,10.6-12.6,16.6l27.6,6.3l5.1-23.8
			c3.9-17.2,7.8-34.5,11.7-51.7c0.3-1.1,0.3-1.3,0.5-2.3L819.7,382.4z"/>
	</g>
	<polygon class="st5" points="720.1,646.7 719.8,647.4 720.2,647.4 720.2,646.7 	"/>
	<g>
		<path class="st4" d="M437,585.1c-21.1,0-31.4,16.2-31.4,32.2c0,16.1,10,31.5,31.4,31.5s31.2-15.8,31.4-31.6
			C468.6,601.2,458.1,585.1,437,585.1z M437,638.3c-14.4,0-19.8-10.7-20.1-20.8c-0.3-10.3,5.7-21.9,20.1-21.9
			c14.4,0,20.2,11.5,20,21.8C456.9,627.4,451.5,638.3,437,638.3z"/>
		<path class="st4" d="M502.8,610.1c-7.3-0.9-13.6-2.4-13.6-7.7c0-4.5,4.1-8.1,12.7-8.1c6.6,0,12.4,3.3,14.5,6.8l9.2-4.7
			c-4.6-9.4-14.5-12.1-24-12.1c-11.3,0.1-23.7,5.2-23.7,17.8c0,13.7,11.5,17,24,18.5c8.1,0.9,14.1,3.2,14.1,9
			c0,6.6-6.8,9.2-14.1,9.2c-7.4,0-14.5-3-17.2-9.7l-9.6,5c4.5,11.2,14.1,15,26.6,15c13.6,0,25.7-5.9,25.7-19.5
			C527.4,615,515.5,611.6,502.8,610.1z"/>
		<polygon class="st4" points="557.5,586.3 530,647.4 542.5,647.4 563.7,599.2 584.9,647.4 597.5,647.4 570,586.3 		"/>
		<polygon class="st4" points="623.6,615.9 650.8,586.7 650.8,586.3 636.5,586.3 613.3,612.2 613.3,586.3 601.7,586.3 601.7,647.4 
			613.3,647.4 613.3,620.4 638.8,647.4 652.6,647.4 653,646.7 		"/>
		<polygon class="st4" points="680.1,586.3 653,646.7 653.1,646.7 653.1,647.4 665.1,647.4 686.3,599.2 707.5,647.4 720,647.4 
			692.6,586.3 		"/>
		<polygon class="st6" points="783.6,612.2 753.6,612.2 753.6,586.4 742,586.4 742,647.5 753.6,647.5 753.6,622.8 783.6,622.8 
			783.6,647.5 795.1,647.5 795.1,586.4 783.6,586.4 		"/>
		<polygon class="st6" points="827,586.3 799.6,647.4 812.1,647.4 833.3,599.2 854.4,647.4 867,647.4 839.6,586.3 		"/>
		<polygon class="st6" points="884.6,586.3 873.1,586.3 873.1,647.4 916.1,647.4 916.1,636.8 884.6,636.8 		"/>
		<polygon class="st6" points="945.3,586.3 917.9,647.4 930.4,647.4 951.6,599.2 972.7,647.4 985.3,647.4 957.9,586.3 		"/>
		<polygon class="st6" points="1003,636.8 1003,586.3 991.4,586.3 991.4,647.4 1034.4,647.4 1034.4,636.8 		"/>
		<polygon class="st7" points="575.1,647.5 563.7,621.5 552.4,647.5 		"/>
		<polygon class="st7" points="697.9,646.7 686.5,620.6 675.2,646.7 		"/>
		<polygon class="st7" points="845.4,647.5 834.1,621.5 822.7,647.5 		"/>
		<polygon class="st7" points="963,646.7 951.6,620.6 940.3,646.7 		"/>
	</g>
	<g>
		<g>
			<path class="st3" d="M690.9,657.4l-8.1,10.7h-0.9l-7.9-10.8v18h-4.7v-24.7h5.4l7.7,10.6l7.7-10.6h5.3v24.7h-4.7V657.4z"/>
			<path class="st5" d="M717.5,670.7h-12.9l-2.1,4.7h-5.1l11.1-24.7h5.1l11.1,24.7h-5.1L717.5,670.7z M711,655.8l-4.6,10.5h9.2
				L711,655.8z"/>
			<path class="st4" d="M748.7,675.3h-5.5l-7.2-8.3h-4.5v8.3h-4.7v-24.8c3.9,0,7.8,0,11.8,0c5.8,0,8.9,3.9,8.9,8.2
				c0,3.4-1.6,6.8-6.3,7.8l7.5,8.4V675.3z M731.5,654.9v7.9h7.1c3,0,4.2-2,4.2-4c0-2-1.3-4-4.2-4H731.5z"/>
			<path class="st6" d="M758.1,654.8h-7.8v-4.2c7.1,0,13.2,0,20.4,0v4.2h-7.8v20.5h-4.7V654.8z"/>
		</g>
		<g>
			<rect x="778" y="661.1" class="st7" width="256.4" height="3.8"/>
			<rect x="405.6" y="661.1" class="st7" width="256.4" height="3.8"/>
		</g>
	</g>
</g>
</svg>
